# xmcd CD database file
#
# Track frame offsets:
#	150
#	11707
#	26603
#	46812
#	68443
#	78398
#	101459
#	131271
#	147641
#	159925
#	179715
#	195267
#
# Disc length: 3040 seconds
#
# Revision: 2
# Processed by: cddbd v1.5.2PL0 Copyright (c) Steve Scherf et al.
# Submitted via: CDex 1.51
#
DISCID=930bde0c
DTITLE=Atmosphere - Sad Clown Bad Dub III
DYEAR=2002
DGENRE=Hip-Hop
TTITLE0=Aspiring Sociopath
TTITLE1=The Woman With The Tattooed Hands
TTITLE2=Between The Lines
TTITLE3=Like Today
TTITLE4=3.2 Red Dog 2.28.96
TTITLE5=It Goes
TTITLE6=The Abusing Of The Rib
TTITLE7=Party For The Fight To Write
TTITLE8=Don't Ever Fucking Question That
TTITLE9=The River
TTITLE10=Scapegoat
TTITLE11=Shrapnel
EXTD=YEAR: 2002
EXTT0=
EXTT1=
EXTT2=
EXTT3=
EXTT4=
EXTT5=
EXTT6=
EXTT7=
EXTT8=
EXTT9=
EXTT10=
EXTT11=
PLAYORDER=
